<?xml version="1.0" encoding="UTF-8"?>
<svg version="1.1" xmlns="http://www.w3.org/2000/svg" width="626" height="626">
<path d="M0 0 C0.94367774 -0.00170885 1.88735548 -0.0034177 2.85962951 -0.00517833 C5.99332167 -0.00844898 9.12679539 0.00249024 12.26046753 0.01345825 C14.51807144 0.01402289 16.77567572 0.01370478 19.03327942 0.01257324 C25.14202897 0.01200079 31.25069955 0.02373782 37.35943079 0.03772116 C43.75090793 0.05024634 50.14238699 0.05140043 56.53387451 0.05377197 C67.25509257 0.05927654 77.97627621 0.0717584 88.69747925 0.08963013 C99.73621477 0.10801193 110.77494243 0.12215715 121.81369019 0.13064575 C122.49508494 0.1311712 123.17647969 0.13169665 123.87852277 0.13223802 C127.29716869 0.13484825 130.71581467 0.13737563 134.13446069 0.13986182 C162.45757006 0.16056671 190.7806481 0.19591755 219.10372925 0.24050903 C219.128377 5.77639437 219.1465642 11.31224803 219.15866089 16.84817505 C219.16370169 18.73294633 219.17053423 20.61771368 219.1791687 22.50247192 C219.19124542 25.20552539 219.19695993 27.90852734 219.2013855 30.61160278 C219.20654678 31.45951889 219.21170807 32.307435 219.21702576 33.18104553 C219.2172212 35.20121972 219.16579135 37.22128837 219.10372925 39.24050903 C217.2539811 41.09025718 214.63013428 40.37026003 212.16781539 40.38177717 C211.30734125 40.38070891 210.44686711 40.37964066 209.56031799 40.37854004 C208.19966295 40.38277196 208.19966295 40.38277196 206.81151992 40.38708937 C203.74704934 40.39547647 200.68261469 40.39677716 197.61813354 40.39822388 C195.43058672 40.40288933 193.24304088 40.40803244 191.05549622 40.41362 C186.33063027 40.42492589 181.60577072 40.43334824 176.88089561 40.43973923 C169.40459709 40.4504001 161.92834415 40.47064213 154.45207214 40.49285889 C143.96283447 40.52343195 133.47359514 40.55264947 122.98434448 40.57839966 C121.98506776 40.58085693 121.98506776 40.58085693 120.96560363 40.58336385 C110.19408163 40.60959188 99.42255622 40.62826474 88.6510159 40.64499156 C77.58580436 40.6624513 66.52066142 40.6915304 55.45550281 40.72988093 C49.24558648 40.75092415 43.03576525 40.76640432 36.82581139 40.7686882 C30.97600544 40.77084189 25.12639708 40.78678499 19.27665138 40.81307793 C17.13538835 40.82024646 14.9941013 40.82238383 12.85282898 40.81897545 C-7.14224857 40.7922452 -23.52127574 43.3644942 -38.665802 57.76785278 C-43.14639375 62.73495361 -47.63081625 68.53828704 -48.89627075 75.24050903 C-49.55627075 75.24050903 -50.21627075 75.24050903 -50.89627075 75.24050903 C-51.08189575 77.06582153 -51.08189575 77.06582153 -51.27127075 78.92800903 C-51.51835155 81.35763684 -51.83828568 83.12048565 -52.90669727 85.33199215 C-54.23314997 89.23065168 -54.16893278 92.94634219 -54.14350891 97.01506042 C-54.14592333 97.8985576 -54.14833774 98.78205477 -54.15082532 99.69232458 C-54.15646075 102.65255307 -54.14780032 105.61256563 -54.13919067 108.57278442 C-54.14026359 110.69508421 -54.14220241 112.81738372 -54.14494324 114.93968201 C-54.14979293 120.70396238 -54.14213446 126.4681654 -54.13199019 132.23243642 C-54.12321224 138.26038988 -54.12496709 144.28834089 -54.12535095 150.31629944 C-54.12441423 160.43859147 -54.11572884 170.56085353 -54.1020813 180.68313599 C-54.08635147 192.39325593 -54.08108334 204.10334306 -54.08181685 215.81347281 C-54.0824268 227.07044624 -54.07732468 238.32740897 -54.06902504 249.5843792 C-54.06549066 254.37895224 -54.06366157 259.1735215 -54.06313133 263.96809578 C-54.06212818 269.61102058 -54.05603382 275.25391774 -54.04596519 280.89683342 C-54.04303982 282.97051703 -54.0418149 285.04420381 -54.04239273 287.1178894 C-54.04288211 289.94293627 -54.03724059 292.76790525 -54.02998352 295.59294128 C-54.03230642 296.83101559 -54.03230642 296.83101559 -54.03467625 298.09410149 C-54.01224347 303.36266912 -53.27306477 307.43272856 -51.39627075 312.30300903 C-49.08497992 318.32392166 -49.08497992 318.32392166 -48.45877075 321.36550903 C-48.27314575 321.98425903 -48.08752075 322.60300903 -47.89627075 323.24050903 C-47.23627075 323.57050903 -46.57627075 323.90050903 -45.89627075 324.24050903 C-44.87760846 325.89583526 -43.87816263 327.56311041 -42.89627075 329.24050903 C-42.23627075 329.90050903 -41.57627075 330.56050903 -40.89627075 331.24050903 C-39.84688129 332.44214153 -38.80580116 333.6510603 -37.77127075 334.86550903 C-37.23244263 335.49714966 -36.6936145 336.12879028 -36.13845825 336.77957153 C-35.72853638 337.26168091 -35.3186145 337.74379028 -34.89627075 338.24050903 C-34.23627075 337.91050903 -33.57627075 337.58050903 -32.89627075 337.24050903 C-32.89627075 338.23050903 -32.89627075 339.22050903 -32.89627075 340.24050903 C-31.90627075 340.57050903 -30.91627075 340.90050903 -29.89627075 341.24050903 C-27.65564996 342.48250108 -25.45316388 343.78076464 -23.24783325 345.08425903 C-20.77962311 346.29786402 -18.58147225 346.71571395 -15.89627075 347.24050903 C-14.90627075 347.90050903 -13.91627075 348.56050903 -12.89627075 349.24050903 C-4.8704563 351.60533767 3.12333529 351.58773696 11.4201355 351.65457153 C13.35270203 351.6810376 13.35270203 351.6810376 15.3243103 351.70803833 C20.10482651 351.77077144 24.88554564 351.81718807 29.66622925 351.86550903 C40.37060425 351.98925903 51.07497925 352.11300903 62.10372925 352.24050903 C62.43372925 388.87050903 62.76372925 425.50050903 63.10372925 463.24050903 C66.40372925 460.27050903 69.70372925 457.30050903 73.10372925 454.24050903 C75.9921011 451.84942761 78.91540656 449.51477616 81.85372925 447.18582153 C84.28333178 445.25995359 84.28333178 445.25995359 86.10372925 442.24050903 C87.09372925 442.24050903 88.08372925 442.24050903 89.10372925 442.24050903 C89.10372925 441.58050903 89.10372925 440.92050903 89.10372925 440.24050903 C90.396698 438.90066528 90.396698 438.90066528 92.29122925 437.30300903 C93.01439331 436.68812622 93.73755737 436.07324341 94.4826355 435.43972778 C95.34759644 434.7139856 96.21255737 433.98824341 97.10372925 433.24050903 C98.17587704 432.33098096 99.24745973 431.42078646 100.318573 430.51004028 C102.52827846 428.63332582 104.73986312 426.75890242 106.95529175 424.88894653 C107.47325317 424.45147095 107.9912146 424.01399536 108.52487183 423.56326294 C109.60530458 422.65808516 110.69138333 421.75961567 111.78219604 420.86697388 C113.99252972 419.05546489 115.96568295 417.428252 117.66622925 415.11550903 C119.47139359 412.76094685 121.57391251 411.75839908 124.10372925 410.24050903 C124.59872925 409.58050903 125.09372925 408.92050903 125.60372925 408.24050903 C127.10372925 406.24050903 127.10372925 406.24050903 129.33029175 404.94754028 C132.57215254 402.9521978 135.2278801 400.53024706 137.97872925 397.92800903 C139.03537322 396.94554114 140.09266175 395.96376601 141.15060425 394.98269653 C141.90953979 394.27645142 141.90953979 394.27645142 142.68380737 393.55593872 C150.58034395 386.24050903 150.58034395 386.24050903 153.10372925 386.24050903 C153.10372925 385.58050903 153.10372925 384.92050903 153.10372925 384.24050903 C154.4670105 382.83035278 154.4670105 382.83035278 156.41622925 381.17800903 C157.13810425 380.56183716 157.85997925 379.94566528 158.60372925 379.31082153 C162.2622958 376.28107111 165.96577909 373.30773885 169.6857605 370.35379028 C171.87853772 368.43732424 173.40125771 366.57703889 175.10372925 364.24050903 C176.75194169 363.21037626 178.41876626 362.20936275 180.10372925 361.24050903 C181.11606504 360.25299891 182.11488755 359.25154419 183.10372925 358.24050903 C184.28207796 357.20912586 185.46981087 356.18837531 186.66622925 355.17800903 C188.55819771 353.57899053 190.35032945 351.99390883 192.10372925 350.24050903 C192.10372925 350.90050903 192.10372925 351.56050903 192.10372925 352.24050903 C214.11360036 352.15655804 236.1233978 352.06140579 258.1331625 351.95298195 C268.35307258 351.90289703 278.5729748 351.85645365 288.79293823 351.81863403 C297.70244559 351.78565455 306.61189124 351.74579047 315.52133042 351.69771898 C320.23716807 351.67251319 324.9529651 351.65071449 329.66885185 351.63716507 C334.11181181 351.6242909 338.55463203 351.60217915 342.99751472 351.57312584 C344.62401438 351.56409181 346.25053651 351.55836963 347.87705994 351.55629539 C355.85974504 351.54429717 363.35570779 351.41736309 371.10372925 349.24050903 C371.78531821 349.07656458 372.46690718 348.91262012 373.16915035 348.74370766 C385.63629349 345.5009093 395.41915662 336.14956321 403.10372925 326.24050903 C403.10372925 325.58050903 403.10372925 324.92050903 403.10372925 324.24050903 C403.57810425 323.80738403 404.05247925 323.37425903 404.54122925 322.92800903 C406.51756011 320.7935717 406.72036161 319.07742956 407.10372925 316.24050903 C407.76372925 316.24050903 408.42372925 316.24050903 409.10372925 316.24050903 C413.20234284 302.52690885 412.76566247 288.43931389 413.10372925 274.24050903 C426.30372925 274.24050903 439.50372925 274.24050903 453.10372925 274.24050903 C453.93541816 313.32988802 453.93541816 313.32988802 446.87716675 330.16629028 C446.49431519 331.19302856 446.49431519 331.19302856 446.10372925 332.24050903 C446.43372925 332.90050903 446.76372925 333.56050903 447.10372925 334.24050903 C446.44372925 334.24050903 445.78372925 334.24050903 445.10372925 334.24050903 C445.10372925 334.90050903 445.10372925 335.56050903 445.10372925 336.24050903 C444.44372925 336.24050903 443.78372925 336.24050903 443.10372925 336.24050903 C442.81497925 337.12738403 442.52622925 338.01425903 442.22872925 338.92800903 C441.85747925 340.02113403 441.48622925 341.11425903 441.10372925 342.24050903 C440.81497925 343.10675903 440.52622925 343.97300903 440.22872925 344.86550903 C438.91926658 347.62993023 437.27113069 349.0887567 435.10372925 351.24050903 C433.83445621 352.80843455 432.58516545 354.39269511 431.35372925 355.99050903 C426.6016772 361.99263447 421.49200178 367.9244654 415.10372925 372.24050903 C414.44372925 372.24050903 413.78372925 372.24050903 413.10372925 372.24050903 C412.77372925 373.23050903 412.44372925 374.22050903 412.10372925 375.24050903 C409.85372925 376.74050903 409.85372925 376.74050903 407.10372925 378.24050903 C406.27872925 378.77675903 405.45372925 379.31300903 404.60372925 379.86550903 C402.05257205 381.26864549 399.93324405 381.6903256 397.10372925 382.24050903 C396.77372925 382.90050903 396.44372925 383.56050903 396.10372925 384.24050903 C393.38194502 385.34482722 390.69996205 386.31943774 387.91622925 387.24050903 C387.17953003 387.50089966 386.44283081 387.76129028 385.68380737 388.02957153 C373.47547747 392.11621451 360.89336321 392.53087751 348.13742065 392.46414185 C346.59170536 392.46361609 345.04598948 392.46405698 343.50027466 392.46537781 C340.20251248 392.46669951 336.90482569 392.46237209 333.60707474 392.4537735 C328.38654285 392.44127923 323.16614684 392.4483977 317.94561768 392.459198 C303.11140145 392.4875231 288.27730695 392.50002672 273.44308472 392.4704895 C265.22669896 392.45429297 257.01061386 392.45944864 248.79425943 392.48828578 C243.60948763 392.5053356 238.42562912 392.49644728 233.24091649 392.46823072 C230.01507053 392.4570494 226.78969313 392.47101358 223.56391144 392.49204826 C222.07402836 392.49680609 220.58407101 392.49139976 219.09427261 392.47481728 C211.44127423 392.39527624 205.40341502 392.44656941 199.41736412 397.75875473 C198.0040977 399.22418471 198.0040977 399.22418471 197.10372925 401.24050903 C196.44372925 401.24050903 195.78372925 401.24050903 195.10372925 401.24050903 C194.77372925 402.23050903 194.44372925 403.22050903 194.10372925 404.24050903 C193.11372925 404.24050903 192.12372925 404.24050903 191.10372925 404.24050903 C191.10372925 404.90050903 191.10372925 405.56050903 191.10372925 406.24050903 C189.62677433 407.52481765 188.14566787 408.80631611 186.61154175 410.02175903 C184.96559829 411.30835574 184.96559829 411.30835574 183.10372925 413.24050903 C180.89878954 415.44544874 178.54473299 417.29880151 176.10372925 419.24050903 C172.99862171 421.71238825 170.33399059 423.89511701 168.10372925 427.24050903 C166.11042083 428.58382558 164.10988059 429.91644915 162.10372925 431.24050903 C160.75175066 432.55493266 159.41346922 433.88399263 158.10372925 435.24050903 C157.44372925 435.57050903 156.78372925 435.90050903 156.10372925 436.24050903 C155.44372925 437.23050903 154.78372925 438.22050903 154.10372925 439.24050903 C152.10372925 440.57384237 150.10372925 441.9071757 148.10372925 443.24050903 C147.31997925 444.02425903 146.53622925 444.80800903 145.72872925 445.61550903 C143.57007492 447.77416336 141.56386005 449.41353319 139.10372925 451.17800903 C136.52251178 453.05833412 134.44384479 454.84889332 132.47872925 457.36550903 C129.94497842 460.43268109 127.42740429 462.0939689 124.10372925 464.24050903 C122.39592952 465.86500146 120.72822167 467.5327093 119.10372925 469.24050903 C117.47536186 470.94461443 115.81603173 472.62076344 114.10372925 474.24050903 C113.44372925 474.24050903 112.78372925 474.24050903 112.10372925 474.24050903 C111.77372925 474.90050903 111.44372925 475.56050903 111.10372925 476.24050903 C110.0709712 477.21067568 109.00300619 478.14376298 107.91622925 479.05300903 C107.28845581 479.58281372 106.66068237 480.11261841 106.0138855 480.65847778 C104.81949473 481.64769713 103.61978567 482.63056979 102.412323 483.60379028 C100.16893369 485.41986734 98.20572215 487.10321089 96.47872925 489.42800903 C95.10372925 491.24050903 95.10372925 491.24050903 93.2638855 492.11550903 C90.74288459 493.42843536 89.16965408 495.04189351 87.16622925 497.05300903 C78.40693951 504.8850124 68.38520974 507.23357918 56.9201355 506.67800903 C52.39951522 506.1597803 48.58918775 505.03805694 44.4357605 503.21316528 C42.10498962 502.12616963 42.10498962 502.12616963 39.427948 501.86160278 C37.10372925 501.24050903 37.10372925 501.24050903 36.04122925 499.45144653 C35.73185425 498.72183716 35.42247925 497.99222778 35.10372925 497.24050903 C33.80445191 495.75175375 32.46797918 494.29496208 31.10372925 492.86550903 C27.97137542 489.43914366 26.24584458 486.80897035 25.10372925 482.24050903 C24.44372925 481.91050903 23.78372925 481.58050903 23.10372925 481.24050903 C22.06881738 476.14491939 21.96509442 471.09778416 21.99020386 465.91848755 C21.99005783 465.11767258 21.9899118 464.3168576 21.98976135 463.49177551 C21.9904532 460.86762704 21.99821125 458.24355122 22.006073 455.61941528 C22.00793977 453.79096007 22.00936245 451.96250436 22.01036072 450.13404846 C22.01416551 445.33860882 22.02397827 440.54319982 22.0350647 435.74777222 C22.04532276 430.84756891 22.04986773 425.94736062 22.05490112 421.04714966 C22.06560248 411.44492271 22.08265427 401.84271843 22.10372925 392.24050903 C20.85766403 392.25032806 20.85766403 392.25032806 19.58642578 392.26034546 C16.46256928 392.28182872 13.33875083 392.29740887 10.21484375 392.30917358 C8.21464516 392.31844581 6.21448078 392.33434048 4.21432495 392.35037231 C-8.52273208 392.39048903 -19.8826833 390.86627909 -31.759552 386.01004028 C-33.98818136 385.07108839 -33.98818136 385.07108839 -36.89627075 385.24050903 C-36.89627075 384.58050903 -36.89627075 383.92050903 -36.89627075 383.24050903 C-38.21627075 383.24050903 -39.53627075 383.24050903 -40.89627075 383.24050903 C-40.89627075 382.58050903 -40.89627075 381.92050903 -40.89627075 381.24050903 C-42.16470825 380.86925903 -42.16470825 380.86925903 -43.45877075 380.49050903 C-49.72898429 378.21043138 -54.34651711 375.02384676 -59.25564575 370.62332153 C-61.01269819 369.06345572 -61.01269819 369.06345572 -63.77127075 367.55300903 C-65.89627075 366.24050903 -65.89627075 366.24050903 -66.89627075 363.24050903 C-67.88627075 363.24050903 -68.87627075 363.24050903 -69.89627075 363.24050903 C-70.01107788 362.64359253 -70.12588501 362.04667603 -70.24417114 361.43167114 C-71.29506755 357.9004861 -73.91459963 355.49268467 -76.33377075 352.80300903 C-79.66469734 349.09676677 -82.29898899 346.04840741 -83.89627075 341.24050903 C-84.55345714 339.90247754 -85.22033256 338.56916617 -85.89627075 337.24050903 C-93.91101463 320.36592924 -95.49180048 304.45760712 -95.41384888 286.04959106 C-95.41928204 283.87103816 -95.42641134 281.69248893 -95.43508911 279.51394653 C-95.45318551 273.64600282 -95.44631126 267.77834325 -95.43357277 261.91039515 C-95.42337111 255.73737538 -95.43285843 249.56437825 -95.43911743 243.39135742 C-95.44637419 233.02706585 -95.43685916 222.66288866 -95.41775513 212.2986145 C-95.39600183 200.36010596 -95.40303471 188.42187089 -95.42506075 176.48336899 C-95.44328485 166.18894796 -95.4457386 155.89460867 -95.43530607 145.60017669 C-95.42910806 139.47129142 -95.42813264 133.34253415 -95.44145203 127.21365738 C-95.45311202 121.44647343 -95.44480158 115.67963767 -95.421875 109.91249084 C-95.41664115 107.81123809 -95.41800875 105.70995541 -95.42692566 103.60871506 C-95.54552553 72.79031643 -95.54552553 72.79031643 -88.89627075 61.24050903 C-88.3961145 60.20539185 -87.89595825 59.17027466 -87.38064575 58.10379028 C-76.71379598 36.26557757 -59.48544473 15.75882186 -35.89627075 7.24050903 C-32.88267533 6.23597723 -29.86289372 5.2597642 -26.83377075 4.30300903 C-25.77029419 3.9639856 -24.70681763 3.62496216 -23.6111145 3.27566528 C-15.68509531 1.06704795 -8.22555127 -0.05559754 0 0 Z " fill="#008DBC" transform="translate(94.89627075195313,77.75949096679688)"/>
<path d="M0 0 C2.875 1.875 2.875 1.875 5 4 C5.99 4.66 6.98 5.32 8 6 C8 6.99 8 7.98 8 9 C8.2553014 10.54810424 8.55000293 12.09001386 8.875 13.625 C9.03742188 14.42164063 9.19984375 15.21828125 9.3671875 16.0390625 C9.68042969 17.00972656 9.68042969 17.00972656 10 18 C10.66 18.33 11.32 18.66 12 19 C12.50512736 20.8858088 12.99967484 22.77534572 13.4296875 24.6796875 C14.01338959 27.05447544 14.75662006 29.31689727 15.5625 31.625 C16.49796683 34.32849913 17.10403674 36.64733975 17.5625 39.5 C17.706875 40.325 17.85125 41.15 18 42 C18.66 42.33 19.32 42.66 20 43 C20.73075648 45.3140622 21.40138258 47.64828869 22 50 C22.66 50 23.32 50 24 50 C24.350625 50.845625 24.70125 51.69125 25.0625 52.5625 C28.56749778 58.78104445 34.56774805 64.78387402 41 68 C41.64453125 68.59554687 42.2890625 69.19109375 42.953125 69.8046875 C47.22800133 72.8847907 51.80374756 74.39051414 56.75 76.125 C58.17699219 76.64513672 58.17699219 76.64513672 59.6328125 77.17578125 C64.7522073 79.00614021 69.77872191 80.46580483 75.10205078 81.55712891 C78.74910155 82.40813869 81.73312874 84.21807022 85 86 C85.33 85.34 85.66 84.68 86 84 C89.58758097 87.38827092 92.71263892 90.60122868 95 95 C94.91664401 99.75129129 94.06759537 103.33867649 91 107 C82.68115903 112.11928675 72.78793261 114.55177358 63.484375 117.37109375 C49.11252419 121.81324677 38.44354282 127.61100665 28.3125 139.0625 C27.44044922 140.03896484 27.44044922 140.03896484 26.55078125 141.03515625 C23.92487996 144.36217979 22.52739861 148.07240357 21 152 C20.34 152 19.68 152 19 152 C18.64228516 153.80210937 18.64228516 153.80210937 18.27734375 155.640625 C16.82745138 162.15430152 14.68199347 168.42918426 12.5625 174.75 C12.16740234 175.95527344 11.77230469 177.16054687 11.36523438 178.40234375 C10.78418945 180.14451172 10.78418945 180.14451172 10.19140625 181.921875 C9.84279541 182.96956055 9.49418457 184.01724609 9.13500977 185.09667969 C7.09926861 190.30404338 5.21326817 193.68299193 0 196 C-2.67920194 196.51293271 -5.27383398 196.76896898 -8 197 C-8 196.34 -8 195.68 -8 195 C-8.763125 194.71125 -9.52625 194.4225 -10.3125 194.125 C-13 193 -13 193 -16 191 C-16.60961914 189.20507812 -16.60961914 189.20507812 -16.97265625 187.03125 C-18.00961238 181.68059918 -19.67228341 176.64948535 -21.4375 171.5 C-21.73720703 170.61441406 -22.03691406 169.72882813 -22.34570312 168.81640625 C-22.94060609 167.05879706 -23.5384538 165.30218152 -24.1394043 163.54663086 C-24.70430272 161.8750123 -25.25572908 160.19876808 -25.79223633 158.51782227 C-27.75326445 152.39111615 -30.45385379 147.37136852 -34 142 C-34.69609375 140.92878906 -34.69609375 140.92878906 -35.40625 139.8359375 C-40.12676062 133.04364723 -46.17851119 127.83168136 -54 125 C-54 124.34 -54 123.68 -54 123 C-54.56380371 122.83491943 -55.12760742 122.66983887 -55.70849609 122.49975586 C-63.05956765 120.32326789 -70.34622726 117.96867267 -77.625 115.5625 C-78.800625 115.18029297 -79.97625 114.79808594 -81.1875 114.40429688 C-97.02037306 109.16521697 -97.02037306 109.16521697 -101 104.8125 C-102.44662904 100.74385581 -102.88163621 97.2551698 -102 93 C-99.29596144 87.84945036 -95.36526198 85.14148842 -89.90234375 83.421875 C-87.55442156 82.90118589 -85.39371742 82.77558899 -83 83 C-82.67 82.34 -82.34 81.68 -82 81 C-79.91796875 80.2890625 -79.91796875 80.2890625 -77.1875 79.625 C-72.90822278 78.52301619 -68.69981378 77.31356566 -64.5 75.9375 C-63.5203125 75.61652344 -62.540625 75.29554687 -61.53125 74.96484375 C-58.81414107 74.03640341 -58.81414107 74.03640341 -56 72 C-55.01 72 -54.02 72 -53 72 C-52.67 71.34 -52.34 70.68 -52 70 C-50.09206876 67.66808403 -48.40709986 66.68676974 -45.6875 65.25 C-40.69129309 62.50261658 -36.81068124 58.43204371 -35 53 C-34.525625 52.566875 -34.05125 52.13375 -33.5625 51.6875 C-31.43503794 49.38984098 -30.85871992 46.97249204 -30 44 C-29.34 44 -28.68 44 -28 44 C-27.49363393 42.25183142 -26.99515381 40.50137737 -26.5 38.75 C-26.2215625 37.77546875 -25.943125 36.8009375 -25.65625 35.796875 C-24.84771134 32.82976587 -24.84771134 32.82976587 -25 29 C-24.08376451 27.20146366 -23.1630123 25.40507502 -22.21875 23.62109375 C-20.65124622 20.24995581 -19.47263015 16.77626889 -18.3125 13.25 C-18.09827393 12.59990967 -17.88404785 11.94981934 -17.66333008 11.2800293 C-16.84000837 8.74049694 -16.0497336 6.24190421 -15.51171875 3.625 C-15.34285156 3.08875 -15.17398438 2.5525 -15 2 C-10.32481409 -0.33759295 -5.13635338 -0.79751143 0 0 Z " fill="#0081EF" transform="translate(454,0)"/>
<path d="M0 0 C3.28212128 0.75272933 4.87187447 2.22370853 7.31640625 4.53125 C8.80200195 7.59985352 8.80200195 7.59985352 9.9921875 11.16015625 C10.20707321 11.79106674 10.42195892 12.42197723 10.64335632 13.07200623 C11.09185611 14.39824241 11.53264815 15.72710779 11.96606445 17.05834961 C12.6296924 19.09616405 13.31549992 21.12540033 14.00585938 23.15429688 C17.31640625 33.01315811 17.31640625 33.01315811 17.31640625 36.53125 C18.80140625 37.02625 18.80140625 37.02625 20.31640625 37.53125 C21.0714239 39.23824642 21.81970786 40.9493714 22.5 42.6875 C25.39622177 49.22824963 31.0615477 53.51166311 37.31640625 56.53125 C37.31640625 57.19125 37.31640625 57.85125 37.31640625 58.53125 C41.4638659 59.94195056 45.60335756 61.3275218 49.81640625 62.53125 C54.03255156 63.73586295 58.16938385 65.10960093 62.31640625 66.53125 C63.26644531 66.84191406 64.21648437 67.15257812 65.1953125 67.47265625 C66.16339844 67.80136719 67.13148438 68.13007813 68.12890625 68.46875 C69.02222656 68.76652344 69.91554688 69.06429687 70.8359375 69.37109375 C73.75007981 70.7340863 75.36911119 71.96333897 77.31640625 74.53125 C77.70703125 77.328125 77.70703125 77.328125 77.56640625 80.28125 C77.5303125 81.26609375 77.49421875 82.2509375 77.45703125 83.265625 C77.410625 84.01328125 77.36421875 84.7609375 77.31640625 85.53125 C76.65640625 85.53125 75.99640625 85.53125 75.31640625 85.53125 C74.98640625 86.52125 74.65640625 87.51125 74.31640625 88.53125 C72.34765625 89.375 72.34765625 89.375 69.81640625 90.03125 C65.57542574 91.17959573 61.45770787 92.49332783 57.32421875 93.98046875 C55.31640625 94.53125 55.31640625 94.53125 51.31640625 94.53125 C50.98640625 95.19125 50.65640625 95.85125 50.31640625 96.53125 C48.4609375 97.2421875 48.4609375 97.2421875 46.12890625 97.90625 C41.90152966 99.2344688 38.81583399 100.8191935 35.31640625 103.53125 C34.98640625 104.19125 34.65640625 104.85125 34.31640625 105.53125 C33.71570313 105.64855469 33.115 105.76585937 32.49609375 105.88671875 C26.97567807 107.51909973 23.37977863 114.7589627 20.5703125 119.44140625 C17.34069195 125.55432894 15.32755535 131.45691696 13.95703125 138.23046875 C13.745625 138.98972656 13.53421875 139.74898437 13.31640625 140.53125 C12.65640625 140.86125 11.99640625 141.19125 11.31640625 141.53125 C10.62609261 143.54646762 10.62609261 143.54646762 10.19140625 145.90625 C10.02382813 146.69773437 9.85625 147.48921875 9.68359375 148.3046875 C9.23504899 150.64848055 9.23504899 150.64848055 9.31640625 153.53125 C8.32640625 153.86125 7.33640625 154.19125 6.31640625 154.53125 C6.31640625 155.19125 6.31640625 155.85125 6.31640625 156.53125 C2.60570584 157.76815014 -0.82757129 158.09389919 -4.68359375 157.53125 C-7.68359375 155.65625 -7.68359375 155.65625 -9.68359375 153.53125 C-9.68359375 152.87125 -9.68359375 152.21125 -9.68359375 151.53125 C-10.34359375 151.20125 -11.00359375 150.87125 -11.68359375 150.53125 C-12.32421875 148.625 -12.32421875 148.625 -12.93359375 146.03125 C-14.48300114 139.93798468 -16.54595891 134.09379571 -18.70214844 128.1953125 C-20.68359375 122.72822253 -20.68359375 122.72822253 -20.68359375 120.53125 C-21.67359375 120.20125 -22.66359375 119.87125 -23.68359375 119.53125 C-24.01359375 117.55125 -24.34359375 115.57125 -24.68359375 113.53125 C-25.34359375 113.53125 -26.00359375 113.53125 -26.68359375 113.53125 C-28.04163051 111.81465568 -29.18189633 109.99940118 -30.3671875 108.16015625 C-31.68372661 106.23171284 -31.68372661 106.23171284 -34.68359375 105.53125 C-36.35443194 104.20314785 -38.02089088 102.86952304 -39.68359375 101.53125 C-42.02663685 100.22190239 -44.12302901 99.38477158 -46.68359375 98.53125 C-48.68359375 97.86458333 -50.68359375 97.19791667 -52.68359375 96.53125 C-52.68359375 95.87125 -52.68359375 95.21125 -52.68359375 94.53125 C-53.67617188 94.41652344 -54.66875 94.30179687 -55.69140625 94.18359375 C-59.81114265 93.59313279 -63.62551773 92.42679849 -67.55859375 91.09375 C-68.2340625 90.87654297 -68.90953125 90.65933594 -69.60546875 90.43554688 C-74.55962506 88.77918739 -74.55962506 88.77918739 -75.68359375 86.53125 C-76.67359375 86.20125 -77.66359375 85.87125 -78.68359375 85.53125 C-80.2401442 82.35329283 -81.18247148 80.00643578 -80.0078125 76.53295898 C-76.93644186 71.11386324 -73.92241814 69.26158196 -68.0234375 67.4375 C-67.08628906 67.1796875 -66.14914062 66.921875 -65.18359375 66.65625 C-63.31879642 66.09706731 -61.45420618 65.53719347 -59.58984375 64.9765625 C-58.76806641 64.74469238 -57.94628906 64.51282227 -57.09960938 64.27392578 C-54.56003762 63.49326923 -52.13767012 62.54703705 -49.68359375 61.53125 C-47.97543591 60.84331409 -46.26710357 60.15581129 -44.55859375 59.46875 C-43.71039063 59.12714844 -42.8621875 58.78554687 -41.98828125 58.43359375 C-40.23907953 57.74873681 -38.46568862 57.12528162 -36.68359375 56.53125 C-36.68359375 55.87125 -36.68359375 55.21125 -36.68359375 54.53125 C-36.09191406 54.26828125 -35.50023437 54.0053125 -34.890625 53.734375 C-22.3975388 46.92398465 -17.47169156 28.27303354 -13.68359375 15.53125 C-13.02782779 13.04021958 -12.45378595 10.5413087 -11.87109375 8.03125 C-9.57197732 1.25490682 -6.78185612 0.09435626 0 0 Z " fill="#0089D5" transform="translate(548.68359375,155.46875)"/>
<path d="M0 0 C0.66 0.66 1.32 1.32 2 2 C1.34 2 0.68 2 0 2 C0 1.34 0 0.68 0 0 Z " fill="#009590" transform="translate(196,563)"/>
<path d="" fill="#0083EC" transform="translate(0,0)"/>
<path d="M0 0 C3 1 3 1 3 1 Z " fill="#0081F2" transform="translate(533,81)"/>
<path d="M0 0 C0.66 0 1.32 0 2 0 C1.67 0.66 1.34 1.32 1 2 C0.67 1.34 0.34 0.68 0 0 Z " fill="#0080F3" transform="translate(312,75)"/>
<path d="M0 0 C0.99 0.495 0.99 0.495 2 1 C1.01 1.495 1.01 1.495 0 2 C0 1.34 0 0.68 0 0 Z " fill="#007DFC" transform="translate(437,4)"/>
<path d="M0 0 C2 1 2 1 2 1 Z " fill="#00958D" transform="translate(129,581)"/>
<path d="M0 0 C2 1 2 1 2 1 Z " fill="#00958E" transform="translate(131,580)"/>
<path d="M0 0 C2 1 2 1 2 1 Z " fill="#00958E" transform="translate(177,579)"/>
<path d="" fill="#00958E" transform="translate(0,0)"/>
<path d="" fill="#00958F" transform="translate(0,0)"/>
<path d="" fill="#009595" transform="translate(0,0)"/>
<path d="M0 0 C2 1 2 1 2 1 Z " fill="#009595" transform="translate(233,533)"/>
<path d="" fill="#009496" transform="translate(0,0)"/>
<path d="M0 0 C2 1 2 1 2 1 Z " fill="#009497" transform="translate(174,522)"/>
<path d="M0 0 C2 1 2 1 2 1 Z " fill="#009499" transform="translate(260,508)"/>
<path d="M0 0 C2 1 2 1 2 1 Z " fill="#00949A" transform="translate(195,506)"/>
<path d="M0 0 C2 1 2 1 2 1 Z " fill="#00949C" transform="translate(202,496)"/>
<path d="" fill="#00939E" transform="translate(0,0)"/>
<path d="" fill="#00939F" transform="translate(0,0)"/>
<path d="M0 0 C2 1 2 1 2 1 Z " fill="#00939F" transform="translate(297,477)"/>
<path d="" fill="#0093A1" transform="translate(0,0)"/>
<path d="M0 0 C2 1 2 1 2 1 Z " fill="#0093A2" transform="translate(238,466)"/>
<path d="M0 0 C2 1 2 1 2 1 Z " fill="#0093A2" transform="translate(55,462)"/>
<path d="" fill="#0093A3" transform="translate(0,0)"/>
<path d="M0 0 C2 1 2 1 2 1 Z " fill="#0093A4" transform="translate(33,453)"/>
<path d="" fill="#0092A6" transform="translate(0,0)"/>
<path d="M0 0 C2 1 2 1 2 1 Z " fill="#0092A7" transform="translate(266,440)"/>
<path d="" fill="#0092A9" transform="translate(0,0)"/>
<path d="M0 0 C2 1 2 1 2 1 Z " fill="#0092A9" transform="translate(280,430)"/>
<path d="" fill="#0092A9" transform="translate(0,0)"/>
<path d="M0 0 C2 1 2 1 2 1 Z " fill="#0092A9" transform="translate(283,429)"/>
<path d="M0 0 C2 1 2 1 2 1 Z " fill="#0092AA" transform="translate(456,427)"/>
<path d="M0 0 C2 1 2 1 2 1 Z " fill="#0092AB" transform="translate(465,424)"/>
<path d="" fill="#0092AB" transform="translate(0,0)"/>
<path d="" fill="#0091AD" transform="translate(0,0)"/>
<path d="" fill="#0091AD" transform="translate(0,0)"/>
<path d="" fill="#0091AE" transform="translate(0,0)"/>
<path d="" fill="#0091B1" transform="translate(0,0)"/>
<path d="" fill="#008BCC" transform="translate(0,0)"/>
<path d="" fill="#008AD1" transform="translate(0,0)"/>
<path d="M0 0 C2 1 2 1 2 1 Z " fill="#0088D9" transform="translate(614,218)"/>
<path d="M0 0 C2 1 2 1 2 1 Z " fill="#0088D9" transform="translate(603,218)"/>
<path d="M0 0 C2 1 2 1 2 1 Z " fill="#0088DB" transform="translate(585,210)"/>
<path d="" fill="#0087DD" transform="translate(0,0)"/>
<path d="" fill="#0087DD" transform="translate(0,0)"/>
<path d="" fill="#0087DE" transform="translate(0,0)"/>
<path d="" fill="#0087DE" transform="translate(0,0)"/>
<path d="" fill="#0087DE" transform="translate(0,0)"/>
<path d="" fill="#0086E2" transform="translate(0,0)"/>
<path d="" fill="#0085E5" transform="translate(0,0)"/>
<path d="" fill="#0085E5" transform="translate(0,0)"/>
<path d="M0 0 C2 1 2 1 2 1 Z " fill="#0085E5" transform="translate(554,157)"/>
<path d="" fill="#0084E7" transform="translate(0,0)"/>
<path d="" fill="#0084E8" transform="translate(0,0)"/>
<path d="" fill="#0084E9" transform="translate(0,0)"/>
<path d="M0 0 C2 1 2 1 2 1 Z " fill="#0083EA" transform="translate(493,132)"/>
<path d="M0 0 C2 1 2 1 2 1 Z " fill="#0083EA" transform="translate(491,131)"/>
<path d="M0 0 C2 1 2 1 2 1 Z " fill="#0083EB" transform="translate(492,129)"/>
<path d="M0 0 C2 1 2 1 2 1 Z " fill="#0083EB" transform="translate(398,126)"/>
<path d="M0 0 C2 1 2 1 2 1 Z " fill="#0083EB" transform="translate(503,125)"/>
<path d="M0 0 C2 1 2 1 2 1 Z " fill="#0083EC" transform="translate(502,123)"/>
<path d="M0 0 C2 1 2 1 2 1 Z " fill="#0083EC" transform="translate(314,118)"/>
<path d="M0 0 C2 1 2 1 2 1 Z " fill="#0082EE" transform="translate(547,110)"/>
<path d="M0 0 C2 1 2 1 2 1 Z " fill="#0082EE" transform="translate(545,109)"/>
<path d="M0 0 C2 1 2 1 2 1 Z " fill="#0082EE" transform="translate(543,108)"/>
<path d="" fill="#0081F1" transform="translate(0,0)"/>
<path d="M0 0 C2 1 2 1 2 1 Z " fill="#0081F2" transform="translate(541,83)"/>
<path d="M0 0 C2 1 2 1 2 1 Z " fill="#0081F2" transform="translate(540,81)"/>
<path d="M0 0 C2 1 2 1 2 1 Z " fill="#0080F3" transform="translate(387,75)"/>
<path d="M0 0 C2 1 2 1 2 1 Z " fill="#007FF6" transform="translate(412,56)"/>
<path d="" fill="#007EF9" transform="translate(0,0)"/>
<path d="" fill="#007EFA" transform="translate(0,0)"/>
<path d="" fill="#007DFC" transform="translate(0,0)"/>
<path d="" fill="#007DFC" transform="translate(0,0)"/>
<path d="" fill="#007DFC" transform="translate(0,0)"/>
<path d="" fill="#00958D" transform="translate(0,0)"/>
<path d="" fill="#00958D" transform="translate(0,0)"/>
<path d="" fill="#00958D" transform="translate(0,0)"/>
<path d="" fill="#00958D" transform="translate(0,0)"/>
<path d="" fill="#00958D" transform="translate(0,0)"/>
<path d="" fill="#00958D" transform="translate(0,0)"/>
<path d="" fill="#00958D" transform="translate(0,0)"/>
<path d="" fill="#00958D" transform="translate(0,0)"/>
<path d="" fill="#00958D" transform="translate(0,0)"/>
<path d="" fill="#00958D" transform="translate(0,0)"/>
<path d="" fill="#00958E" transform="translate(0,0)"/>
<path d="" fill="#00958E" transform="translate(0,0)"/>
<path d="" fill="#00958E" transform="translate(0,0)"/>
<path d="" fill="#00958E" transform="translate(0,0)"/>
<path d="" fill="#00958E" transform="translate(0,0)"/>
<path d="" fill="#00958E" transform="translate(0,0)"/>
<path d="" fill="#00958E" transform="translate(0,0)"/>
<path d="" fill="#00958E" transform="translate(0,0)"/>
<path d="" fill="#00958E" transform="translate(0,0)"/>
<path d="" fill="#00958E" transform="translate(0,0)"/>
<path d="" fill="#00958E" transform="translate(0,0)"/>
<path d="" fill="#00958E" transform="translate(0,0)"/>
<path d="" fill="#00958E" transform="translate(0,0)"/>
<path d="" fill="#00958E" transform="translate(0,0)"/>
<path d="" fill="#00958E" transform="translate(0,0)"/>
<path d="" fill="#00958E" transform="translate(0,0)"/>
<path d="" fill="#00958F" transform="translate(0,0)"/>
<path d="" fill="#00958F" transform="translate(0,0)"/>
<path d="" fill="#00958F" transform="translate(0,0)"/>
<path d="" fill="#00958F" transform="translate(0,0)"/>
<path d="" fill="#00958F" transform="translate(0,0)"/>
<path d="" fill="#00958F" transform="translate(0,0)"/>
<path d="" fill="#00958F" transform="translate(0,0)"/>
<path d="" fill="#00958F" transform="translate(0,0)"/>
<path d="" fill="#009590" transform="translate(0,0)"/>
<path d="" fill="#009590" transform="translate(0,0)"/>
<path d="" fill="#009590" transform="translate(0,0)"/>
<path d="" fill="#009590" transform="translate(0,0)"/>
<path d="" fill="#009590" transform="translate(0,0)"/>
<path d="" fill="#009590" transform="translate(0,0)"/>
<path d="" fill="#009590" transform="translate(0,0)"/>
<path d="" fill="#009590" transform="translate(0,0)"/>
<path d="" fill="#009591" transform="translate(0,0)"/>
<path d="" fill="#009591" transform="translate(0,0)"/>
<path d="" fill="#009591" transform="translate(0,0)"/>
<path d="" fill="#009592" transform="translate(0,0)"/>
<path d="" fill="#009592" transform="translate(0,0)"/>
<path d="" fill="#009592" transform="translate(0,0)"/>
<path d="" fill="#009592" transform="translate(0,0)"/>
<path d="" fill="#009592" transform="translate(0,0)"/>
<path d="" fill="#009592" transform="translate(0,0)"/>
<path d="" fill="#009593" transform="translate(0,0)"/>
<path d="" fill="#009593" transform="translate(0,0)"/>
<path d="" fill="#009593" transform="translate(0,0)"/>
<path d="" fill="#009594" transform="translate(0,0)"/>
<path d="" fill="#009594" transform="translate(0,0)"/>
<path d="" fill="#009595" transform="translate(0,0)"/>
<path d="" fill="#009595" transform="translate(0,0)"/>
<path d="" fill="#009595" transform="translate(0,0)"/>
<path d="" fill="#009595" transform="translate(0,0)"/>
<path d="" fill="#009595" transform="translate(0,0)"/>
<path d="" fill="#009595" transform="translate(0,0)"/>
<path d="" fill="#009595" transform="translate(0,0)"/>
<path d="" fill="#009595" transform="translate(0,0)"/>
<path d="" fill="#009595" transform="translate(0,0)"/>
<path d="" fill="#009595" transform="translate(0,0)"/>
<path d="" fill="#009596" transform="translate(0,0)"/>
<path d="" fill="#009596" transform="translate(0,0)"/>
<path d="" fill="#009596" transform="translate(0,0)"/>
<path d="" fill="#009596" transform="translate(0,0)"/>
<path d="" fill="#009596" transform="translate(0,0)"/>
<path d="" fill="#009596" transform="translate(0,0)"/>
<path d="" fill="#009596" transform="translate(0,0)"/>
<path d="" fill="#009596" transform="translate(0,0)"/>
<path d="" fill="#009596" transform="translate(0,0)"/>
<path d="" fill="#009596" transform="translate(0,0)"/>
<path d="" fill="#009596" transform="translate(0,0)"/>
<path d="" fill="#009596" transform="translate(0,0)"/>
<path d="" fill="#009496" transform="translate(0,0)"/>
<path d="" fill="#009496" transform="translate(0,0)"/>
<path d="" fill="#009496" transform="translate(0,0)"/>
<path d="" fill="#009496" transform="translate(0,0)"/>
<path d="" fill="#009496" transform="translate(0,0)"/>
<path d="" fill="#009497" transform="translate(0,0)"/>
<path d="" fill="#009497" transform="translate(0,0)"/>
<path d="" fill="#009497" transform="translate(0,0)"/>
<path d="" fill="#009497" transform="translate(0,0)"/>
<path d="" fill="#009497" transform="translate(0,0)"/>
<path d="" fill="#009497" transform="translate(0,0)"/>
<path d="" fill="#009497" transform="translate(0,0)"/>
<path d="" fill="#009498" transform="translate(0,0)"/>
<path d="" fill="#009498" transform="translate(0,0)"/>
<path d="" fill="#009498" transform="translate(0,0)"/>
<path d="" fill="#009498" transform="translate(0,0)"/>
<path d="" fill="#009498" transform="translate(0,0)"/>
<path d="" fill="#009498" transform="translate(0,0)"/>
<path d="" fill="#009498" transform="translate(0,0)"/>
<path d="" fill="#009498" transform="translate(0,0)"/>
<path d="" fill="#009498" transform="translate(0,0)"/>
<path d="" fill="#009499" transform="translate(0,0)"/>
<path d="" fill="#009499" transform="translate(0,0)"/>
<path d="" fill="#009499" transform="translate(0,0)"/>
<path d="" fill="#009499" transform="translate(0,0)"/>
<path d="" fill="#009499" transform="translate(0,0)"/>
<path d="" fill="#00949A" transform="translate(0,0)"/>
<path d="" fill="#00949A" transform="translate(0,0)"/>
<path d="" fill="#00949A" transform="translate(0,0)"/>
<path d="" fill="#00949A" transform="translate(0,0)"/>
<path d="" fill="#00949A" transform="translate(0,0)"/>
<path d="" fill="#00949A" transform="translate(0,0)"/>
<path d="" fill="#00949A" transform="translate(0,0)"/>
<path d="" fill="#00949A" transform="translate(0,0)"/>
<path d="" fill="#00949A" transform="translate(0,0)"/>
<path d="" fill="#00949B" transform="translate(0,0)"/>
<path d="" fill="#00949B" transform="translate(0,0)"/>
<path d="" fill="#00949B" transform="translate(0,0)"/>
<path d="" fill="#00949B" transform="translate(0,0)"/>
<path d="" fill="#00949B" transform="translate(0,0)"/>
<path d="" fill="#00949B" transform="translate(0,0)"/>
<path d="" fill="#00949B" transform="translate(0,0)"/>
<path d="" fill="#00949B" transform="translate(0,0)"/>
<path d="" fill="#00949B" transform="translate(0,0)"/>
<path d="" fill="#00949B" transform="translate(0,0)"/>
<path d="" fill="#00949B" transform="translate(0,0)"/>
<path d="" fill="#00949B" transform="translate(0,0)"/>
<path d="" fill="#00949B" transform="translate(0,0)"/>
<path d="" fill="#00949B" transform="translate(0,0)"/>
<path d="" fill="#00949B" transform="translate(0,0)"/>
<path d="" fill="#00949C" transform="translate(0,0)"/>
<path d="" fill="#00949C" transform="translate(0,0)"/>
<path d="" fill="#00949C" transform="translate(0,0)"/>
<path d="" fill="#00949C" transform="translate(0,0)"/>
<path d="" fill="#00949C" transform="translate(0,0)"/>
<path d="" fill="#00949C" transform="translate(0,0)"/>
<path d="" fill="#00949C" transform="translate(0,0)"/>
<path d="" fill="#00949D" transform="translate(0,0)"/>
<path d="" fill="#00949D" transform="translate(0,0)"/>
<path d="" fill="#00949D" transform="translate(0,0)"/>
<path d="" fill="#00949D" transform="translate(0,0)"/>
<path d="" fill="#00949D" transform="translate(0,0)"/>
<path d="" fill="#00949D" transform="translate(0,0)"/>
<path d="" fill="#00949E" transform="translate(0,0)"/>
<path d="" fill="#00949E" transform="translate(0,0)"/>
<path d="" fill="#00949E" transform="translate(0,0)"/>
<path d="" fill="#00939E" transform="translate(0,0)"/>
<path d="" fill="#00939F" transform="translate(0,0)"/>
<path d="" fill="#00939F" transform="translate(0,0)"/>
<path d="" fill="#00939F" transform="translate(0,0)"/>
<path d="" fill="#00939F" transform="translate(0,0)"/>
<path d="" fill="#00939F" transform="translate(0,0)"/>
<path d="" fill="#00939F" transform="translate(0,0)"/>
<path d="" fill="#0093A0" transform="translate(0,0)"/>
<path d="" fill="#0093A0" transform="translate(0,0)"/>
<path d="" fill="#0093A0" transform="translate(0,0)"/>
<path d="" fill="#0093A0" transform="translate(0,0)"/>
<path d="" fill="#0093A0" transform="translate(0,0)"/>
<path d="" fill="#0093A0" transform="translate(0,0)"/>
<path d="" fill="#0093A0" transform="translate(0,0)"/>
<path d="" fill="#0093A0" transform="translate(0,0)"/>
<path d="" fill="#0093A0" transform="translate(0,0)"/>
<path d="" fill="#0093A0" transform="translate(0,0)"/>
<path d="" fill="#0093A0" transform="translate(0,0)"/>
<path d="" fill="#0093A0" transform="translate(0,0)"/>
<path d="" fill="#0093A0" transform="translate(0,0)"/>
<path d="" fill="#0093A0" transform="translate(0,0)"/>
<path d="" fill="#0093A0" transform="translate(0,0)"/>
<path d="" fill="#0093A1" transform="translate(0,0)"/>
<path d="" fill="#0093A1" transform="translate(0,0)"/>
<path d="" fill="#0093A1" transform="translate(0,0)"/>
<path d="" fill="#0093A1" transform="translate(0,0)"/>
<path d="" fill="#0093A1" transform="translate(0,0)"/>
<path d="" fill="#0093A1" transform="translate(0,0)"/>
<path d="" fill="#0093A1" transform="translate(0,0)"/>
<path d="" fill="#0093A1" transform="translate(0,0)"/>
<path d="" fill="#0093A1" transform="translate(0,0)"/>
<path d="" fill="#0093A1" transform="translate(0,0)"/>
<path d="" fill="#0093A2" transform="translate(0,0)"/>
<path d="" fill="#0093A2" transform="translate(0,0)"/>
<path d="" fill="#0093A2" transform="translate(0,0)"/>
<path d="" fill="#0093A2" transform="translate(0,0)"/>
<path d="" fill="#0093A2" transform="translate(0,0)"/>
<path d="" fill="#0093A2" transform="translate(0,0)"/>
<path d="" fill="#0093A2" transform="translate(0,0)"/>
<path d="" fill="#0093A3" transform="translate(0,0)"/>
<path d="" fill="#0093A3" transform="translate(0,0)"/>
<path d="" fill="#0093A3" transform="translate(0,0)"/>
<path d="" fill="#0093A3" transform="translate(0,0)"/>
<path d="" fill="#0093A3" transform="translate(0,0)"/>
<path d="" fill="#0093A3" transform="translate(0,0)"/>
<path d="" fill="#0093A3" transform="translate(0,0)"/>
<path d="" fill="#0093A3" transform="translate(0,0)"/>
<path d="" fill="#0093A4" transform="translate(0,0)"/>
<path d="" fill="#0093A4" transform="translate(0,0)"/>
<path d="" fill="#0093A4" transform="translate(0,0)"/>
<path d="" fill="#0093A4" transform="translate(0,0)"/>
<path d="" fill="#0093A4" transform="translate(0,0)"/>
<path d="" fill="#0093A4" transform="translate(0,0)"/>
<path d="" fill="#0093A4" transform="translate(0,0)"/>
<path d="" fill="#0093A4" transform="translate(0,0)"/>
<path d="" fill="#0093A4" transform="translate(0,0)"/>
<path d="" fill="#0093A5" transform="translate(0,0)"/>
<path d="" fill="#0093A5" transform="translate(0,0)"/>
<path d="" fill="#0093A5" transform="translate(0,0)"/>
<path d="" fill="#0093A5" transform="translate(0,0)"/>
<path d="" fill="#0093A5" transform="translate(0,0)"/>
<path d="" fill="#0093A5" transform="translate(0,0)"/>
<path d="" fill="#0093A5" transform="translate(0,0)"/>
<path d="" fill="#0093A5" transform="translate(0,0)"/>
<path d="" fill="#0093A5" transform="translate(0,0)"/>
<path d="" fill="#0093A5" transform="translate(0,0)"/>
<path d="" fill="#0093A5" transform="translate(0,0)"/>
<path d="" fill="#0092A6" transform="translate(0,0)"/>
<path d="" fill="#0092A6" transform="translate(0,0)"/>
<path d="" fill="#0092A6" transform="translate(0,0)"/>
<path d="" fill="#0092A6" transform="translate(0,0)"/>
<path d="" fill="#0092A6" transform="translate(0,0)"/>
<path d="" fill="#0092A6" transform="translate(0,0)"/>
<path d="" fill="#0092A6" transform="translate(0,0)"/>
<path d="" fill="#0092A6" transform="translate(0,0)"/>
<path d="" fill="#0092A6" transform="translate(0,0)"/>
<path d="" fill="#0092A6" transform="translate(0,0)"/>
<path d="" fill="#0092A6" transform="translate(0,0)"/>
<path d="" fill="#0092A6" transform="translate(0,0)"/>
<path d="" fill="#0092A6" transform="translate(0,0)"/>
<path d="" fill="#0092A7" transform="translate(0,0)"/>
<path d="" fill="#0092A7" transform="translate(0,0)"/>
<path d="" fill="#0092A7" transform="translate(0,0)"/>
<path d="" fill="#0092A7" transform="translate(0,0)"/>
<path d="" fill="#0092A7" transform="translate(0,0)"/>
<path d="" fill="#0092A7" transform="translate(0,0)"/>
<path d="" fill="#0092A7" transform="translate(0,0)"/>
<path d="" fill="#0092A8" transform="translate(0,0)"/>
<path d="" fill="#0092A8" transform="translate(0,0)"/>
<path d="" fill="#0092A8" transform="translate(0,0)"/>
<path d="" fill="#0092A8" transform="translate(0,0)"/>
<path d="" fill="#0092A8" transform="translate(0,0)"/>
<path d="" fill="#0092A8" transform="translate(0,0)"/>
<path d="" fill="#0092A8" transform="translate(0,0)"/>
<path d="" fill="#0092A8" transform="translate(0,0)"/>
<path d="" fill="#0092A8" transform="translate(0,0)"/>
<path d="" fill="#0092A8" transform="translate(0,0)"/>
<path d="" fill="#0092A8" transform="translate(0,0)"/>
<path d="" fill="#0092A8" transform="translate(0,0)"/>
<path d="" fill="#0092A8" transform="translate(0,0)"/>
<path d="" fill="#0092A9" transform="translate(0,0)"/>
<path d="" fill="#0092A9" transform="translate(0,0)"/>
<path d="" fill="#0092A9" transform="translate(0,0)"/>
<path d="" fill="#0092A9" transform="translate(0,0)"/>
<path d="" fill="#0092A9" transform="translate(0,0)"/>
<path d="" fill="#0092AA" transform="translate(0,0)"/>
<path d="" fill="#0092AA" transform="translate(0,0)"/>
<path d="" fill="#0092AA" transform="translate(0,0)"/>
<path d="" fill="#0092AA" transform="translate(0,0)"/>
<path d="" fill="#0092AA" transform="translate(0,0)"/>
<path d="" fill="#0092AA" transform="translate(0,0)"/>
<path d="" fill="#0092AA" transform="translate(0,0)"/>
<path d="" fill="#0092AA" transform="translate(0,0)"/>
<path d="" fill="#0092AA" transform="translate(0,0)"/>
<path d="" fill="#0092AA" transform="translate(0,0)"/>
<path d="" fill="#0092AA" transform="translate(0,0)"/>
<path d="" fill="#0092AB" transform="translate(0,0)"/>
<path d="" fill="#0092AB" transform="translate(0,0)"/>
<path d="" fill="#0092AB" transform="translate(0,0)"/>
<path d="" fill="#0092AB" transform="translate(0,0)"/>
<path d="" fill="#0092AB" transform="translate(0,0)"/>
<path d="" fill="#0092AB" transform="translate(0,0)"/>
<path d="" fill="#0092AB" transform="translate(0,0)"/>
<path d="" fill="#0092AB" transform="translate(0,0)"/>
<path d="" fill="#0092AB" transform="translate(0,0)"/>
<path d="" fill="#0092AB" transform="translate(0,0)"/>
<path d="" fill="#0092AB" transform="translate(0,0)"/>
<path d="" fill="#0092AB" transform="translate(0,0)"/>
<path d="" fill="#0092AB" transform="translate(0,0)"/>
<path d="" fill="#0092AB" transform="translate(0,0)"/>
<path d="" fill="#0092AB" transform="translate(0,0)"/>
<path d="" fill="#0092AC" transform="translate(0,0)"/>
<path d="" fill="#0092AC" transform="translate(0,0)"/>
<path d="" fill="#0092AC" transform="translate(0,0)"/>
<path d="" fill="#0092AC" transform="translate(0,0)"/>
<path d="" fill="#0092AC" transform="translate(0,0)"/>
<path d="" fill="#0092AC" transform="translate(0,0)"/>
<path d="" fill="#0092AC" transform="translate(0,0)"/>
<path d="" fill="#0092AC" transform="translate(0,0)"/>
<path d="" fill="#0092AC" transform="translate(0,0)"/>
<path d="" fill="#0092AC" transform="translate(0,0)"/>
<path d="" fill="#0092AC" transform="translate(0,0)"/>
<path d="" fill="#0091AD" transform="translate(0,0)"/>
<path d="" fill="#0091AD" transform="translate(0,0)"/>
<path d="" fill="#0091AD" transform="translate(0,0)"/>
<path d="" fill="#0091AD" transform="translate(0,0)"/>
<path d="" fill="#0091AD" transform="translate(0,0)"/>
<path d="" fill="#0091AD" transform="translate(0,0)"/>
<path d="" fill="#0091AD" transform="translate(0,0)"/>
<path d="" fill="#0091AD" transform="translate(0,0)"/>
<path d="" fill="#0091AE" transform="translate(0,0)"/>
<path d="" fill="#0091AE" transform="translate(0,0)"/>
<path d="" fill="#0091AE" transform="translate(0,0)"/>
<path d="" fill="#0091AE" transform="translate(0,0)"/>
<path d="" fill="#0091AE" transform="translate(0,0)"/>
<path d="" fill="#0091AE" transform="translate(0,0)"/>
<path d="" fill="#0091AE" transform="translate(0,0)"/>
<path d="" fill="#0091AE" transform="translate(0,0)"/>
<path d="" fill="#0091AE" transform="translate(0,0)"/>
<path d="" fill="#0091AF" transform="translate(0,0)"/>
<path d="" fill="#0091AF" transform="translate(0,0)"/>
<path d="" fill="#0091AF" transform="translate(0,0)"/>
<path d="" fill="#0091AF" transform="translate(0,0)"/>
<path d="" fill="#0091AF" transform="translate(0,0)"/>
<path d="" fill="#0091AF" transform="translate(0,0)"/>
<path d="" fill="#0091AF" transform="translate(0,0)"/>
<path d="" fill="#0091B0" transform="translate(0,0)"/>
<path d="" fill="#0091B0" transform="translate(0,0)"/>
<path d="" fill="#0091B0" transform="translate(0,0)"/>
<path d="" fill="#0091B0" transform="translate(0,0)"/>
<path d="" fill="#0091B0" transform="translate(0,0)"/>
<path d="" fill="#0091B0" transform="translate(0,0)"/>
<path d="" fill="#0091B1" transform="translate(0,0)"/>
<path d="" fill="#0091B1" transform="translate(0,0)"/>
<path d="" fill="#0091B1" transform="translate(0,0)"/>
<path d="" fill="#0091B1" transform="translate(0,0)"/>
<path d="" fill="#0091B1" transform="translate(0,0)"/>
<path d="" fill="#0091B2" transform="translate(0,0)"/>
<path d="" fill="#0090B3" transform="translate(0,0)"/>
<path d="" fill="#0090B3" transform="translate(0,0)"/>
<path d="" fill="#008DC4" transform="translate(0,0)"/>
<path d="" fill="#008DC4" transform="translate(0,0)"/>
<path d="" fill="#008DC4" transform="translate(0,0)"/>
<path d="" fill="#008DC4" transform="translate(0,0)"/>
<path d="" fill="#008DC5" transform="translate(0,0)"/>
<path d="" fill="#008DC5" transform="translate(0,0)"/>
<path d="" fill="#008DC5" transform="translate(0,0)"/>
<path d="" fill="#008DC5" transform="translate(0,0)"/>
<path d="" fill="#008DC6" transform="translate(0,0)"/>
<path d="" fill="#008DC6" transform="translate(0,0)"/>
<path d="" fill="#008CC8" transform="translate(0,0)"/>
<path d="" fill="#008CC8" transform="translate(0,0)"/>
<path d="" fill="#008CC9" transform="translate(0,0)"/>
<path d="" fill="#008CCB" transform="translate(0,0)"/>
<path d="" fill="#008CCB" transform="translate(0,0)"/>
<path d="" fill="#008CCC" transform="translate(0,0)"/>
<path d="" fill="#008CCC" transform="translate(0,0)"/>
<path d="" fill="#008BCC" transform="translate(0,0)"/>
<path d="" fill="#008BCC" transform="translate(0,0)"/>
<path d="" fill="#008BCD" transform="translate(0,0)"/>
<path d="" fill="#008BCD" transform="translate(0,0)"/>
<path d="" fill="#008BCD" transform="translate(0,0)"/>
<path d="" fill="#008BCE" transform="translate(0,0)"/>
<path d="" fill="#008BCE" transform="translate(0,0)"/>
<path d="" fill="#008BCE" transform="translate(0,0)"/>
<path d="" fill="#008BCF" transform="translate(0,0)"/>
<path d="" fill="#008BCF" transform="translate(0,0)"/>
<path d="" fill="#008BCF" transform="translate(0,0)"/>
<path d="" fill="#008BCF" transform="translate(0,0)"/>
<path d="" fill="#008BCF" transform="translate(0,0)"/>
<path d="" fill="#008BD0" transform="translate(0,0)"/>
<path d="" fill="#008AD0" transform="translate(0,0)"/>
<path d="" fill="#008AD1" transform="translate(0,0)"/>
<path d="" fill="#008AD1" transform="translate(0,0)"/>
<path d="" fill="#008AD1" transform="translate(0,0)"/>
<path d="" fill="#008AD2" transform="translate(0,0)"/>
<path d="" fill="#008AD3" transform="translate(0,0)"/>
<path d="" fill="#008AD3" transform="translate(0,0)"/>
<path d="" fill="#008AD3" transform="translate(0,0)"/>
<path d="" fill="#008AD4" transform="translate(0,0)"/>
<path d="" fill="#0089D7" transform="translate(0,0)"/>
<path d="" fill="#0089D7" transform="translate(0,0)"/>
<path d="" fill="#0089D7" transform="translate(0,0)"/>
<path d="" fill="#0089D7" transform="translate(0,0)"/>
<path d="" fill="#0089D7" transform="translate(0,0)"/>
<path d="" fill="#0089D8" transform="translate(0,0)"/>
<path d="" fill="#0089D8" transform="translate(0,0)"/>
<path d="" fill="#0088D9" transform="translate(0,0)"/>
<path d="" fill="#0088D9" transform="translate(0,0)"/>
<path d="" fill="#0088D9" transform="translate(0,0)"/>
<path d="" fill="#0088D9" transform="translate(0,0)"/>
<path d="" fill="#0088D9" transform="translate(0,0)"/>
<path d="" fill="#0088D9" transform="translate(0,0)"/>
<path d="" fill="#0088D9" transform="translate(0,0)"/>
<path d="" fill="#0088D9" transform="translate(0,0)"/>
<path d="" fill="#0088DA" transform="translate(0,0)"/>
<path d="" fill="#0088DA" transform="translate(0,0)"/>
<path d="" fill="#0088DA" transform="translate(0,0)"/>
<path d="" fill="#0088DA" transform="translate(0,0)"/>
<path d="" fill="#0088DB" transform="translate(0,0)"/>
<path d="" fill="#0088DB" transform="translate(0,0)"/>
<path d="" fill="#0088DB" transform="translate(0,0)"/>
<path d="" fill="#0087DC" transform="translate(0,0)"/>
<path d="" fill="#0087DC" transform="translate(0,0)"/>
<path d="" fill="#0087DC" transform="translate(0,0)"/>
<path d="" fill="#0087DC" transform="translate(0,0)"/>
<path d="" fill="#0087DC" transform="translate(0,0)"/>
<path d="" fill="#0087DC" transform="translate(0,0)"/>
<path d="" fill="#0087DD" transform="translate(0,0)"/>
<path d="" fill="#0087DD" transform="translate(0,0)"/>
<path d="" fill="#0087DD" transform="translate(0,0)"/>
<path d="" fill="#0087DD" transform="translate(0,0)"/>
<path d="" fill="#0087DD" transform="translate(0,0)"/>
<path d="" fill="#0087DD" transform="translate(0,0)"/>
<path d="" fill="#0087DD" transform="translate(0,0)"/>
<path d="" fill="#0087DD" transform="translate(0,0)"/>
<path d="" fill="#0087DD" transform="translate(0,0)"/>
<path d="" fill="#0087DD" transform="translate(0,0)"/>
<path d="" fill="#0087DD" transform="translate(0,0)"/>
<path d="" fill="#0087DD" transform="translate(0,0)"/>
<path d="" fill="#0087DD" transform="translate(0,0)"/>
<path d="" fill="#0087DE" transform="translate(0,0)"/>
<path d="" fill="#0087DE" transform="translate(0,0)"/>
<path d="" fill="#0087DE" transform="translate(0,0)"/>
<path d="" fill="#0087DE" transform="translate(0,0)"/>
<path d="" fill="#0087DE" transform="translate(0,0)"/>
<path d="" fill="#0087DE" transform="translate(0,0)"/>
<path d="" fill="#0087DE" transform="translate(0,0)"/>
<path d="" fill="#0087DE" transform="translate(0,0)"/>
<path d="" fill="#0087DE" transform="translate(0,0)"/>
<path d="" fill="#0087DE" transform="translate(0,0)"/>
<path d="" fill="#0087DE" transform="translate(0,0)"/>
<path d="" fill="#0087DE" transform="translate(0,0)"/>
<path d="" fill="#0087DE" transform="translate(0,0)"/>
<path d="" fill="#0087DE" transform="translate(0,0)"/>
<path d="" fill="#0087DE" transform="translate(0,0)"/>
<path d="" fill="#0087DE" transform="translate(0,0)"/>
<path d="" fill="#0087DE" transform="translate(0,0)"/>
<path d="" fill="#0087DE" transform="translate(0,0)"/>
<path d="" fill="#0087DE" transform="translate(0,0)"/>
<path d="" fill="#0087DF" transform="translate(0,0)"/>
<path d="" fill="#0087DF" transform="translate(0,0)"/>
<path d="" fill="#0086E0" transform="translate(0,0)"/>
<path d="" fill="#0086E1" transform="translate(0,0)"/>
<path d="" fill="#0086E1" transform="translate(0,0)"/>
<path d="" fill="#0086E1" transform="translate(0,0)"/>
<path d="" fill="#0086E1" transform="translate(0,0)"/>
<path d="" fill="#0086E2" transform="translate(0,0)"/>
<path d="" fill="#0086E2" transform="translate(0,0)"/>
<path d="" fill="#0086E2" transform="translate(0,0)"/>
<path d="" fill="#0086E3" transform="translate(0,0)"/>
<path d="" fill="#0085E3" transform="translate(0,0)"/>
<path d="" fill="#0085E3" transform="translate(0,0)"/>
<path d="" fill="#0085E4" transform="translate(0,0)"/>
<path d="" fill="#0085E5" transform="translate(0,0)"/>
<path d="" fill="#0085E5" transform="translate(0,0)"/>
<path d="" fill="#0085E5" transform="translate(0,0)"/>
<path d="" fill="#0085E5" transform="translate(0,0)"/>
<path d="" fill="#0085E5" transform="translate(0,0)"/>
<path d="" fill="#0085E6" transform="translate(0,0)"/>
<path d="" fill="#0085E6" transform="translate(0,0)"/>
<path d="" fill="#0085E6" transform="translate(0,0)"/>
<path d="" fill="#0085E6" transform="translate(0,0)"/>
<path d="" fill="#0085E6" transform="translate(0,0)"/>
<path d="" fill="#0085E6" transform="translate(0,0)"/>
<path d="" fill="#0084E6" transform="translate(0,0)"/>
<path d="" fill="#0084E6" transform="translate(0,0)"/>
<path d="" fill="#0084E7" transform="translate(0,0)"/>
<path d="" fill="#0084E7" transform="translate(0,0)"/>
<path d="" fill="#0084E7" transform="translate(0,0)"/>
<path d="" fill="#0084E7" transform="translate(0,0)"/>
<path d="" fill="#0084E7" transform="translate(0,0)"/>
<path d="" fill="#0084E7" transform="translate(0,0)"/>
<path d="" fill="#0084E7" transform="translate(0,0)"/>
<path d="" fill="#0084E8" transform="translate(0,0)"/>
<path d="" fill="#0084E8" transform="translate(0,0)"/>
<path d="" fill="#0084E8" transform="translate(0,0)"/>
<path d="" fill="#0084E8" transform="translate(0,0)"/>
<path d="" fill="#0084E8" transform="translate(0,0)"/>
<path d="" fill="#0084E8" transform="translate(0,0)"/>
<path d="" fill="#0084E8" transform="translate(0,0)"/>
<path d="" fill="#0084E8" transform="translate(0,0)"/>
<path d="" fill="#0084E8" transform="translate(0,0)"/>
<path d="" fill="#0084E8" transform="translate(0,0)"/>
<path d="" fill="#0084E8" transform="translate(0,0)"/>
<path d="" fill="#0084E8" transform="translate(0,0)"/>
<path d="" fill="#0084E9" transform="translate(0,0)"/>
<path d="" fill="#0084E9" transform="translate(0,0)"/>
<path d="" fill="#0084E9" transform="translate(0,0)"/>
<path d="" fill="#0084E9" transform="translate(0,0)"/>
<path d="" fill="#0084E9" transform="translate(0,0)"/>
<path d="" fill="#0084E9" transform="translate(0,0)"/>
<path d="" fill="#0083EA" transform="translate(0,0)"/>
<path d="" fill="#0083EA" transform="translate(0,0)"/>
<path d="" fill="#0083EA" transform="translate(0,0)"/>
<path d="" fill="#0083EA" transform="translate(0,0)"/>
<path d="" fill="#0083EA" transform="translate(0,0)"/>
<path d="" fill="#0083EA" transform="translate(0,0)"/>
<path d="" fill="#0083EA" transform="translate(0,0)"/>
<path d="" fill="#0083EA" transform="translate(0,0)"/>
<path d="" fill="#0083EB" transform="translate(0,0)"/>
<path d="" fill="#0083EB" transform="translate(0,0)"/>
<path d="" fill="#0083EB" transform="translate(0,0)"/>
<path d="" fill="#0083EB" transform="translate(0,0)"/>
<path d="" fill="#0083EB" transform="translate(0,0)"/>
<path d="" fill="#0083EB" transform="translate(0,0)"/>
<path d="" fill="#0083EB" transform="translate(0,0)"/>
<path d="" fill="#0083EC" transform="translate(0,0)"/>
<path d="" fill="#0083EC" transform="translate(0,0)"/>
<path d="" fill="#0083EC" transform="translate(0,0)"/>
<path d="" fill="#0083EC" transform="translate(0,0)"/>
<path d="" fill="#0083EC" transform="translate(0,0)"/>
<path d="" fill="#0083EC" transform="translate(0,0)"/>
<path d="" fill="#0083EC" transform="translate(0,0)"/>
<path d="" fill="#0083EC" transform="translate(0,0)"/>
<path d="" fill="#0083EC" transform="translate(0,0)"/>
<path d="" fill="#0083ED" transform="translate(0,0)"/>
<path d="" fill="#0083ED" transform="translate(0,0)"/>
<path d="" fill="#0083ED" transform="translate(0,0)"/>
<path d="" fill="#0082ED" transform="translate(0,0)"/>
<path d="" fill="#0082ED" transform="translate(0,0)"/>
<path d="" fill="#0082ED" transform="translate(0,0)"/>
<path d="" fill="#0082ED" transform="translate(0,0)"/>
<path d="" fill="#0082ED" transform="translate(0,0)"/>
<path d="" fill="#0082ED" transform="translate(0,0)"/>
<path d="" fill="#0082EE" transform="translate(0,0)"/>
<path d="" fill="#0082EE" transform="translate(0,0)"/>
<path d="" fill="#0082EE" transform="translate(0,0)"/>
<path d="" fill="#0082EE" transform="translate(0,0)"/>
<path d="" fill="#0082EE" transform="translate(0,0)"/>
<path d="" fill="#0082EE" transform="translate(0,0)"/>
<path d="" fill="#0082EE" transform="translate(0,0)"/>
<path d="" fill="#0082EE" transform="translate(0,0)"/>
<path d="" fill="#0082EE" transform="translate(0,0)"/>
<path d="" fill="#0082EE" transform="translate(0,0)"/>
<path d="" fill="#0082EE" transform="translate(0,0)"/>
<path d="" fill="#0082EE" transform="translate(0,0)"/>
<path d="" fill="#0082EE" transform="translate(0,0)"/>
<path d="" fill="#0082EE" transform="translate(0,0)"/>
<path d="" fill="#0082EE" transform="translate(0,0)"/>
<path d="" fill="#0082EF" transform="translate(0,0)"/>
<path d="" fill="#0082EF" transform="translate(0,0)"/>
<path d="" fill="#0082EF" transform="translate(0,0)"/>
<path d="" fill="#0082EF" transform="translate(0,0)"/>
<path d="" fill="#0082EF" transform="translate(0,0)"/>
<path d="" fill="#0082EF" transform="translate(0,0)"/>
<path d="" fill="#0082EF" transform="translate(0,0)"/>
<path d="" fill="#0082EF" transform="translate(0,0)"/>
<path d="" fill="#0081F0" transform="translate(0,0)"/>
<path d="" fill="#0081F0" transform="translate(0,0)"/>
<path d="" fill="#0081F0" transform="translate(0,0)"/>
<path d="" fill="#0081F1" transform="translate(0,0)"/>
<path d="" fill="#0081F1" transform="translate(0,0)"/>
<path d="" fill="#0081F1" transform="translate(0,0)"/>
<path d="" fill="#0081F1" transform="translate(0,0)"/>
<path d="" fill="#0081F1" transform="translate(0,0)"/>
<path d="" fill="#0081F1" transform="translate(0,0)"/>
<path d="" fill="#0081F1" transform="translate(0,0)"/>
<path d="" fill="#0081F1" transform="translate(0,0)"/>
<path d="" fill="#0081F1" transform="translate(0,0)"/>
<path d="" fill="#0081F1" transform="translate(0,0)"/>
<path d="" fill="#0081F1" transform="translate(0,0)"/>
<path d="" fill="#0081F2" transform="translate(0,0)"/>
<path d="" fill="#0081F2" transform="translate(0,0)"/>
<path d="" fill="#0081F2" transform="translate(0,0)"/>
<path d="" fill="#0081F2" transform="translate(0,0)"/>
<path d="" fill="#0081F2" transform="translate(0,0)"/>
<path d="" fill="#0081F2" transform="translate(0,0)"/>
<path d="" fill="#0081F2" transform="translate(0,0)"/>
<path d="" fill="#0081F2" transform="translate(0,0)"/>
<path d="" fill="#0081F2" transform="translate(0,0)"/>
<path d="" fill="#0081F3" transform="translate(0,0)"/>
<path d="" fill="#0080F3" transform="translate(0,0)"/>
<path d="" fill="#0080F3" transform="translate(0,0)"/>
<path d="" fill="#0080F3" transform="translate(0,0)"/>
<path d="" fill="#0080F3" transform="translate(0,0)"/>
<path d="" fill="#0080F3" transform="translate(0,0)"/>
<path d="" fill="#0080F3" transform="translate(0,0)"/>
<path d="" fill="#0080F3" transform="translate(0,0)"/>
<path d="" fill="#0080F4" transform="translate(0,0)"/>
<path d="" fill="#0080F4" transform="translate(0,0)"/>
<path d="" fill="#0080F4" transform="translate(0,0)"/>
<path d="" fill="#0080F4" transform="translate(0,0)"/>
<path d="" fill="#0080F4" transform="translate(0,0)"/>
<path d="" fill="#0080F4" transform="translate(0,0)"/>
<path d="" fill="#0080F4" transform="translate(0,0)"/>
<path d="" fill="#0080F5" transform="translate(0,0)"/>
<path d="" fill="#0080F5" transform="translate(0,0)"/>
<path d="" fill="#0080F5" transform="translate(0,0)"/>
<path d="" fill="#0080F5" transform="translate(0,0)"/>
<path d="" fill="#0080F5" transform="translate(0,0)"/>
<path d="" fill="#0080F5" transform="translate(0,0)"/>
<path d="" fill="#0080F5" transform="translate(0,0)"/>
<path d="" fill="#0080F5" transform="translate(0,0)"/>
<path d="" fill="#0080F5" transform="translate(0,0)"/>
<path d="" fill="#0080F5" transform="translate(0,0)"/>
<path d="" fill="#0080F5" transform="translate(0,0)"/>
<path d="" fill="#0080F5" transform="translate(0,0)"/>
<path d="" fill="#0080F5" transform="translate(0,0)"/>
<path d="" fill="#007FF6" transform="translate(0,0)"/>
<path d="" fill="#007FF6" transform="translate(0,0)"/>
<path d="" fill="#007FF6" transform="translate(0,0)"/>
<path d="" fill="#007FF6" transform="translate(0,0)"/>
<path d="" fill="#007FF6" transform="translate(0,0)"/>
<path d="" fill="#007FF6" transform="translate(0,0)"/>
<path d="" fill="#007FF6" transform="translate(0,0)"/>
<path d="" fill="#007FF6" transform="translate(0,0)"/>
<path d="" fill="#007FF6" transform="translate(0,0)"/>
<path d="" fill="#007FF6" transform="translate(0,0)"/>
<path d="" fill="#007FF7" transform="translate(0,0)"/>
<path d="" fill="#007FF7" transform="translate(0,0)"/>
<path d="" fill="#007FF7" transform="translate(0,0)"/>
<path d="" fill="#007FF7" transform="translate(0,0)"/>
<path d="" fill="#007FF7" transform="translate(0,0)"/>
<path d="" fill="#007FF8" transform="translate(0,0)"/>
<path d="" fill="#007FF8" transform="translate(0,0)"/>
<path d="" fill="#007FF8" transform="translate(0,0)"/>
<path d="" fill="#007FF8" transform="translate(0,0)"/>
<path d="" fill="#007EFB" transform="translate(0,0)"/>
<path d="" fill="#007DFC" transform="translate(0,0)"/>
<path d="" fill="#007DFC" transform="translate(0,0)"/>
<path d="" fill="#007DFC" transform="translate(0,0)"/>
<path d="" fill="#007DFC" transform="translate(0,0)"/>
<path d="" fill="#007DFC" transform="translate(0,0)"/>
<path d="" fill="#007DFC" transform="translate(0,0)"/>
<path d="" fill="#007DFC" transform="translate(0,0)"/>
<path d="" fill="#007DFC" transform="translate(0,0)"/>
</svg>
