<?xml version="1.0" encoding="UTF-8"?>
<svg version="1.1" xmlns="http://www.w3.org/2000/svg" width="512" height="512">
<path d="M0 0 C18.01164707 16.41130909 33.274436 34.84277855 45.47900391 55.96704102 C46.11193359 57.04469727 46.74486328 58.12235352 47.39697266 59.23266602 C76.35119036 110.78388796 81.95085409 173.29190538 66.47900391 229.96704102 C50.42883526 286.72381881 11.4440174 335.52194351 -39.52099609 364.96704102 C-40.59865234 365.5999707 -41.67630859 366.23290039 -42.78662109 366.88500977 C-94.33784304 395.83922747 -156.84586046 401.4388912 -213.52099609 385.96704102 C-270.27777389 369.91687237 -319.07589858 330.93205451 -348.52099609 279.96704102 C-349.15392578 278.88938477 -349.78685547 277.81172852 -350.43896484 276.70141602 C-379.39318255 225.15019407 -384.99284628 162.64217665 -369.52099609 105.96704102 C-353.47082744 49.21026322 -314.48600959 0.41213852 -263.52099609 -29.03295898 C-262.44333984 -29.66588867 -261.36568359 -30.29881836 -260.25537109 -30.95092773 C-177.08976794 -77.66165327 -70.15216754 -63.20828442 0 0 Z M-210.52099609 79.96704102 C-224.66428079 96.22520941 -232.37894626 116.37771884 -231.52099609 137.96704102 C-230.63857658 148.50458117 -227.92585735 158.34955026 -223.52099609 167.96704102 C-223.10205078 168.88743164 -222.68310547 169.80782227 -222.25146484 170.75610352 C-212.55597559 190.14708203 -194.94531538 203.32237094 -174.71630859 210.35375977 C-153.29602928 216.5958657 -131.5272482 213.54831587 -112.09521484 203.05297852 C-107.52711622 200.46283185 -103.47304113 197.41539404 -99.52099609 193.96704102 C-98.06886719 192.80881836 -98.06886719 192.80881836 -96.58740234 191.62719727 C-81.75182569 179.24330191 -73.60659689 158.73001344 -71.79443359 139.93334961 C-70.18623647 117.95289224 -77.52656957 97.97488295 -91.57568359 81.20141602 C-92.21763672 80.46407227 -92.85958984 79.72672852 -93.52099609 78.96704102 C-94.03919922 78.35344727 -94.55740234 77.73985352 -95.09130859 77.10766602 C-107.75763136 63.23199585 -128.62654108 54.80890152 -147.11474609 53.76391602 C-171.46376603 53.47172778 -193.74807937 62.05456307 -210.52099609 79.96704102 Z M-247.52099609 249.96704102 C-248.40142578 250.64250977 -249.28185547 251.31797852 -250.18896484 252.01391602 C-263.63812338 262.64903705 -274.67648199 274.95883687 -284.52099609 288.96704102 C-285.02244141 289.67650879 -285.52388672 290.38597656 -286.04052734 291.11694336 C-286.50845703 291.81384277 -286.97638672 292.51074219 -287.45849609 293.22875977 C-288.09078125 294.1620813 -288.09078125 294.1620813 -288.73583984 295.11425781 C-289.74553926 297.49690982 -289.42840708 298.58051354 -288.52099609 300.96704102 C-285.27623168 305.76929234 -280.91308305 309.26121765 -276.52099609 312.96704102 C-275.65474609 313.72114258 -274.78849609 314.47524414 -273.89599609 315.25219727 C-234.09422097 349.37573002 -185.59587569 364.30498507 -133.484375 360.76049805 C-89.57111719 356.64533181 -49.7308194 336.2583956 -18.81787109 305.25610352 C-16.52099609 302.96704102 -16.52099609 302.96704102 -14.64599609 301.40454102 C-14.27474609 300.93016602 -13.90349609 300.45579102 -13.52099609 299.96704102 C-15.24182501 287.18777051 -30.13467821 273.97725452 -38.52099609 264.96704102 C-39.18357422 264.2387207 -39.84615234 263.51040039 -40.52880859 262.76000977 C-54.35780682 248.16857627 -76.68669183 230.86878536 -97.33349609 229.21704102 C-104.83991533 229.4228189 -111.376065 232.23931681 -118.29907227 234.8918457 C-143.87779011 244.67393277 -167.79977159 242.15673747 -192.65258789 231.67553711 C-212.65655038 224.09008054 -232.38328328 238.21569062 -247.52099609 249.96704102 Z " fill="#000000" transform="translate(407.52099609375,88.032958984375)"/>
</svg>
